# Blender v2.74 (sub 0) OBJ File: ''
# www.blender.org
mtllib cylinder.mtl
o Cylinder_Cylinder.001
v 1.240784 2.585290 -0.222571
v 1.435875 2.585290 -0.203357
v 1.435875 0.585290 -0.203357
v 1.623468 2.585290 -0.146451
v 1.623468 0.585290 -0.146451
v 1.796355 2.585290 -0.054041
v 1.796355 0.585290 -0.054041
v 1.947891 2.585290 0.070322
v 1.947891 0.585290 0.070322
v 2.072254 2.585290 0.221859
v 2.072254 0.585290 0.221859
v 2.164664 2.585290 0.394745
v 2.164664 0.585290 0.394745
v 2.221570 2.585290 0.582338
v 2.221570 0.585290 0.582338
v 2.240784 2.585290 0.777429
v 2.240784 0.585290 0.777429
v 2.221570 2.585290 0.972519
v 2.221570 0.585290 0.972519
v 2.164664 2.585290 1.160112
v 2.164664 0.585290 1.160112
v 2.072254 2.585290 1.332999
v 2.072254 0.585290 1.332999
v 1.947891 2.585290 1.484535
v 1.947891 0.585290 1.484535
v 1.796355 2.585290 1.608898
v 1.796355 0.585290 1.608898
v 1.623468 2.585290 1.701308
v 1.623468 0.585290 1.701308
v 1.435875 2.585290 1.758214
v 1.435875 0.585290 1.758214
v 1.240784 2.585290 1.777429
v 1.240784 0.585290 1.777429
v 1.045694 2.585290 1.758214
v 1.045694 0.585290 1.758214
v 0.858101 2.585290 1.701308
v 0.858101 0.585290 1.701308
v 0.685214 2.585290 1.608898
v 0.685214 0.585290 1.608898
v 0.533677 2.585290 1.484535
v 0.533677 0.585290 1.484535
v 0.409314 2.585290 1.332998
v 0.409314 0.585290 1.332998
v 0.316905 2.585290 1.160111
v 0.316905 0.585290 1.160111
v 0.259999 2.585290 0.972518
v 0.259999 0.585290 0.972518
v 0.240784 2.585290 0.777428
v 0.240784 0.585290 0.777428
v 0.259999 2.585290 0.582337
v 0.259999 0.585290 0.582337
v 0.316905 2.585290 0.394744
v 0.316905 0.585290 0.394744
v 0.409316 2.585290 0.221857
v 0.409316 0.585290 0.221857
v 0.533679 2.585290 0.070321
v 0.533679 0.585290 0.070321
v 0.685215 2.585290 -0.054042
v 0.685215 0.585290 -0.054042
v 0.858102 2.585290 -0.146451
v 0.858102 0.585290 -0.146451
v 1.045696 2.585290 -0.203357
v 1.240784 0.585290 -0.222571
v 1.045696 0.585290 -0.203357
vn 0.098000 0.000000 -0.995200
vn 0.290300 0.000000 -0.956900
vn 0.471400 0.000000 -0.881900
vn 0.634400 0.000000 -0.773000
vn 0.773000 0.000000 -0.634400
vn 0.881900 0.000000 -0.471400
vn 0.956900 -0.000000 -0.290300
vn 0.995200 0.000000 -0.098000
vn 0.995200 -0.000000 0.098000
vn 0.956900 -0.000000 0.290300
vn 0.881900 -0.000000 0.471400
vn 0.773000 -0.000000 0.634400
vn 0.634400 -0.000000 0.773000
vn 0.471400 -0.000000 0.881900
vn 0.290300 -0.000000 0.956900
vn 0.098000 -0.000000 0.995200
vn -0.098000 -0.000000 0.995200
vn -0.290300 -0.000000 0.956900
vn -0.471400 -0.000000 0.881900
vn -0.634400 -0.000000 0.773000
vn -0.773000 -0.000000 0.634400
vn -0.881900 -0.000000 0.471400
vn -0.956900 -0.000000 0.290300
vn -0.995200 -0.000000 0.098000
vn -0.995200 0.000000 -0.098000
vn -0.956900 0.000000 -0.290300
vn -0.881900 0.000000 -0.471400
vn -0.773000 0.000000 -0.634400
vn -0.634400 0.000000 -0.773000
vn -0.471400 0.000000 -0.881900
vn 0.000000 1.000000 0.000000
vn -0.098000 0.000000 -0.995200
vn -0.290300 0.000000 -0.956900
vn 0.000000 -1.000000 -0.000000
usemtl None
s 1
f 1//1 2//1 3//1
f 2//2 4//2 5//2
f 4//3 6//3 7//3
f 6//4 8//4 9//4
f 8//5 10//5 11//5
f 10//6 12//6 13//6
f 12//7 14//7 15//7
f 14//8 16//8 17//8
f 16//9 18//9 19//9
f 18//10 20//10 21//10
f 20//11 22//11 23//11
f 22//12 24//12 25//12
f 24//13 26//13 27//13
f 26//14 28//14 29//14
f 28//15 30//15 31//15
f 30//16 32//16 33//16
f 32//17 34//17 35//17
f 34//18 36//18 37//18
f 36//19 38//19 39//19
f 38//20 40//20 41//20
f 40//21 42//21 43//21
f 42//22 44//22 45//22
f 44//23 46//23 47//23
f 46//24 48//24 49//24
f 48//25 50//25 51//25
f 50//26 52//26 53//26
f 52//27 54//27 55//27
f 54//28 56//28 57//28
f 56//29 58//29 59//29
f 58//30 60//30 61//30
f 18//31 50//31 34//31
f 62//32 1//32 63//32
f 60//33 62//33 64//33
f 63//34 17//34 33//34
f 63//1 1//1 3//1
f 3//2 2//2 5//2
f 5//3 4//3 7//3
f 7//4 6//4 9//4
f 9//5 8//5 11//5
f 11//6 10//6 13//6
f 13//7 12//7 15//7
f 15//8 14//8 17//8
f 17//9 16//9 19//9
f 19//10 18//10 21//10
f 21//11 20//11 23//11
f 23//12 22//12 25//12
f 25//13 24//13 27//13
f 27//14 26//14 29//14
f 29//15 28//15 31//15
f 31//16 30//16 33//16
f 33//17 32//17 35//17
f 35//18 34//18 37//18
f 37//19 36//19 39//19
f 39//20 38//20 41//20
f 41//21 40//21 43//21
f 43//22 42//22 45//22
f 45//23 44//23 47//23
f 47//24 46//24 49//24
f 49//25 48//25 51//25
f 51//26 50//26 53//26
f 53//27 52//27 55//27
f 55//28 54//28 57//28
f 57//29 56//29 59//29
f 59//30 58//30 61//30
f 6//31 4//31 2//31
f 2//31 8//31 6//31
f 18//31 12//31 10//31
f 18//31 16//31 14//31
f 22//31 20//31 18//31
f 26//31 24//31 22//31
f 30//31 28//31 26//31
f 34//31 32//31 30//31
f 38//31 36//31 34//31
f 42//31 40//31 38//31
f 46//31 44//31 42//31
f 50//31 48//31 46//31
f 54//31 52//31 50//31
f 50//31 56//31 54//31
f 62//31 60//31 58//31
f 2//31 1//31 62//31
f 10//31 8//31 2//31
f 18//31 14//31 12//31
f 34//31 22//31 18//31
f 34//31 30//31 26//31
f 50//31 38//31 34//31
f 50//31 46//31 42//31
f 58//31 56//31 50//31
f 2//31 62//31 58//31
f 18//31 10//31 2//31
f 34//31 26//31 22//31
f 50//31 42//31 38//31
f 2//31 58//31 50//31
f 50//31 18//31 2//31
f 64//32 62//32 63//32
f 61//33 60//33 64//33
f 57//34 64//34 63//34
f 57//34 59//34 61//34
f 53//34 55//34 57//34
f 49//34 51//34 53//34
f 41//34 47//34 49//34
f 41//34 43//34 45//34
f 37//34 39//34 41//34
f 33//34 35//34 37//34
f 25//34 31//34 33//34
f 25//34 27//34 29//34
f 21//34 23//34 25//34
f 17//34 19//34 21//34
f 13//34 15//34 17//34
f 9//34 11//34 13//34
f 5//34 7//34 9//34
f 63//34 3//34 5//34
f 57//34 61//34 64//34
f 49//34 53//34 57//34
f 41//34 45//34 47//34
f 49//34 37//34 41//34
f 25//34 29//34 31//34
f 33//34 21//34 25//34
f 63//34 13//34 17//34
f 63//34 5//34 9//34
f 33//34 57//34 63//34
f 33//34 37//34 49//34
f 17//34 21//34 33//34
f 63//34 9//34 13//34
f 33//34 49//34 57//34
